# xmcd
#
# Track frame offsets: 
#        182
#        24735
#        29977
#        42205
#        74557
#        103442
#        126960
#        151630
#        172020
#        197825
#        225355
#        244860
#
# Disc length: 3561 seconds
#
# Revision: 1
# Processed by: cddbd v1.4PL0 Copyright (c) Steve Scherf et al.
# Submitted via: ExactAudioCopy v0.90b4
#
DISCID=ab0de70c
DTITLE=Famoudou Don Moye Sun Percussion Summit and More - Ancestral Memo
DTITLE=ries From Africa To Chicago
DYEAR=1996
DGENRE=Jazz
TTITLE0=By The Rivers Of Babylon
TTITLE1=Malachi
TTITLE2=Ancestral Memories
TTITLE3=Afrikan Song
TTITLE4=Mada
TTITLE5=Just My Imagination
TTITLE6=Super Yeye
TTITLE7=Solomon
TTITLE8=Jam For Your Life
TTITLE9=One For Skip
TTITLE10=Black Nile 
TTITLE11=Big Red Peaches
EXTD=YEAR: 1996
EXTT0=
EXTT1=
EXTT2=
EXTT3=
EXTT4=
EXTT5=
EXTT6=
EXTT7=
EXTT8=
EXTT9=
EXTT10=
EXTT11=
PLAYORDER=
